<?xml version="1.0" encoding="utf-8" standalone="no"?>
<!DOCTYPE svg PUBLIC "-//W3C//DTD SVG 1.1//EN"
  "http://www.w3.org/Graphics/SVG/1.1/DTD/svg11.dtd">
<svg xmlns:xlink="http://www.w3.org/1999/xlink" width="346.08375pt" height="419.271987pt" viewBox="0 0 346.08375 419.271987" xmlns="http://www.w3.org/2000/svg" version="1.1">
 <metadata>
  <rdf:RDF xmlns:dc="http://purl.org/dc/elements/1.1/" xmlns:cc="http://creativecommons.org/ns#" xmlns:rdf="http://www.w3.org/1999/02/22-rdf-syntax-ns#">
   <cc:Work>
    <dc:type rdf:resource="http://purl.org/dc/dcmitype/StillImage"/>
    <dc:date>2026-05-14T08:59:55.733673</dc:date>
    <dc:format>image/svg+xml</dc:format>
    <dc:creator>
     <cc:Agent>
      <dc:title>Matplotlib v3.10.9, https://matplotlib.org/</dc:title>
     </cc:Agent>
    </dc:creator>
   </cc:Work>
  </rdf:RDF>
 </metadata>
 <defs>
  <style type="text/css">*{stroke-linejoin: round; stroke-linecap: butt}</style>
 </defs>
 <g id="figure_1">
  <g id="patch_1">
   <path d="M 0 419.271987 
L 346.08375 419.271987 
L 346.08375 0 
L 0 0 
L 0 419.271987 
z
" style="fill: none"/>
  </g>
  <g id="axes_1">
   <g id="patch_2">
    <path d="M 47.041875 381.918125 
L 299.041875 381.918125 
L 299.041875 36.318125 
L 47.041875 36.318125 
L 47.041875 381.918125 
z
" style="fill: none"/>
   </g>
   <g id="FillBetweenPolyCollection_1">
    <defs>
     <path id="m29f54aed0d" d="M 123.950966 -37.353862 
L 58.49642 -37.353862 
L 59.769988 -39.730888 
L 64.574009 -42.107913 
L 70.822202 -44.484939 
L 76.438892 -46.861965 
L 80.31633 -49.238991 
L 82.411681 -51.616017 
L 83.253229 -53.993043 
L 83.416371 -56.370068 
L 83.275449 -58.747094 
L 83.002524 -61.12412 
L 82.66014 -63.501146 
L 82.280633 -65.878172 
L 81.900072 -68.255197 
L 81.555963 -70.632223 
L 81.270028 -73.009249 
L 81.036609 -75.386275 
L 80.827609 -77.763301 
L 80.610182 -80.140327 
L 80.364041 -82.517352 
L 80.088469 -84.894378 
L 79.799813 -87.271404 
L 79.526068 -89.64843 
L 79.301578 -92.025456 
L 79.159902 -94.402481 
L 79.124822 -96.779507 
L 79.20479 -99.156533 
L 79.395033 -101.533559 
L 79.684409 -103.910585 
L 80.060621 -106.287611 
L 80.511662 -108.664636 
L 81.026624 -111.041662 
L 81.59849 -113.418688 
L 82.227203 -115.795714 
L 82.918676 -118.17274 
L 83.677144 -120.549765 
L 84.493494 -122.926791 
L 85.33766 -125.303817 
L 86.162967 -127.680843 
L 86.921906 -130.057869 
L 87.582599 -132.434895 
L 88.134102 -134.81192 
L 88.578975 -137.188946 
L 88.922876 -139.565972 
L 89.171425 -141.942998 
L 89.335012 -144.320024 
L 89.433952 -146.69705 
L 89.497362 -149.074075 
L 89.556059 -151.451101 
L 89.634075 -153.828127 
L 89.742413 -156.205153 
L 89.876403 -158.582179 
L 90.018054 -160.959204 
L 90.144528 -163.33623 
L 90.23985 -165.713256 
L 90.302741 -168.090282 
L 90.3452 -170.467308 
L 90.383904 -172.844334 
L 90.431527 -175.221359 
L 90.493084 -177.598385 
L 90.567086 -179.975411 
L 90.648401 -182.352437 
L 90.730506 -184.729463 
L 90.806667 -187.106488 
L 90.870822 -189.483514 
L 90.918871 -191.86054 
L 90.950308 -194.237566 
L 90.969113 -196.614592 
L 90.982679 -198.991618 
L 90.998658 -201.368643 
L 91.021338 -203.745669 
L 91.049796 -206.122695 
L 91.079002 -208.499721 
L 91.103083 -210.876747 
L 91.118659 -213.253773 
L 91.12631 -215.630798 
L 91.12968 -218.007824 
L 91.133259 -220.38485 
L 91.140343 -222.761876 
L 91.152018 -225.138902 
L 91.167198 -227.515927 
L 91.183416 -229.892953 
L 91.197997 -232.269979 
L 91.209149 -234.647005 
L 91.21642 -237.024031 
L 91.220416 -239.401057 
L 91.222128 -241.778082 
L 91.222347 -244.155108 
L 91.221459 -246.532134 
L 91.219598 -248.90916 
L 91.216978 -251.286186 
L 91.214152 -253.663211 
L 91.211936 -256.040237 
L 91.210961 -258.417263 
L 91.211197 -260.794289 
L 91.211909 -263.171315 
L 91.212206 -265.548341 
L 91.211757 -267.925366 
L 91.211068 -270.302392 
L 91.211062 -272.679418 
L 91.236324 -272.679418 
L 91.236324 -272.679418 
L 91.236318 -270.302392 
L 91.235629 -267.925366 
L 91.235181 -265.548341 
L 91.235477 -263.171315 
L 91.236189 -260.794289 
L 91.236425 -258.417263 
L 91.23545 -256.040237 
L 91.233234 -253.663211 
L 91.230409 -251.286186 
L 91.227789 -248.90916 
L 91.225927 -246.532134 
L 91.225039 -244.155108 
L 91.225258 -241.778082 
L 91.22697 -239.401057 
L 91.230967 -237.024031 
L 91.238237 -234.647005 
L 91.249389 -232.269979 
L 91.263971 -229.892953 
L 91.280188 -227.515927 
L 91.295369 -225.138902 
L 91.307043 -222.761876 
L 91.314127 -220.38485 
L 91.317706 -218.007824 
L 91.321076 -215.630798 
L 91.328727 -213.253773 
L 91.344303 -210.876747 
L 91.368384 -208.499721 
L 91.39759 -206.122695 
L 91.426048 -203.745669 
L 91.448729 -201.368643 
L 91.464708 -198.991618 
L 91.478273 -196.614592 
L 91.497078 -194.237566 
L 91.528515 -191.86054 
L 91.576565 -189.483514 
L 91.640719 -187.106488 
L 91.716881 -184.729463 
L 91.798985 -182.352437 
L 91.880301 -179.975411 
L 91.954302 -177.598385 
L 92.015859 -175.221359 
L 92.063482 -172.844334 
L 92.102187 -170.467308 
L 92.144646 -168.090282 
L 92.207536 -165.713256 
L 92.302858 -163.33623 
L 92.429332 -160.959204 
L 92.570984 -158.582179 
L 92.704973 -156.205153 
L 92.813312 -153.828127 
L 92.891327 -151.451101 
L 92.950024 -149.074075 
L 93.013435 -146.69705 
L 93.112374 -144.320024 
L 93.275961 -141.942998 
L 93.52451 -139.565972 
L 93.868412 -137.188946 
L 94.313285 -134.81192 
L 94.864787 -132.434895 
L 95.525481 -130.057869 
L 96.284419 -127.680843 
L 97.109726 -125.303817 
L 97.953892 -122.926791 
L 98.770242 -120.549765 
L 99.52871 -118.17274 
L 100.220183 -115.795714 
L 100.848896 -113.418688 
L 101.420763 -111.041662 
L 101.935724 -108.664636 
L 102.386765 -106.287611 
L 102.762977 -103.910585 
L 103.052353 -101.533559 
L 103.242596 -99.156533 
L 103.322565 -96.779507 
L 103.287485 -94.402481 
L 103.145808 -92.025456 
L 102.921319 -89.64843 
L 102.647573 -87.271404 
L 102.358917 -84.894378 
L 102.083346 -82.517352 
L 101.837204 -80.140327 
L 101.619777 -77.763301 
L 101.410777 -75.386275 
L 101.177359 -73.009249 
L 100.891424 -70.632223 
L 100.547314 -68.255197 
L 100.166754 -65.878172 
L 99.787246 -63.501146 
L 99.444862 -61.12412 
L 99.171937 -58.747094 
L 99.031016 -56.370068 
L 99.194158 -53.993043 
L 100.035705 -51.616017 
L 102.131056 -49.238991 
L 106.008494 -46.861965 
L 111.625185 -44.484939 
L 117.873377 -42.107913 
L 122.677398 -39.730888 
L 123.950966 -37.353862 
z
"/>
    </defs>
    <g clip-path="url(#p0cfce62df0)">
     <use xlink:href="#m29f54aed0d" x="0" y="419.271987" style="fill: #b6d7a8; fill-opacity: 0.3"/>
    </g>
   </g>
   <g id="FillBetweenPolyCollection_2">
    <defs>
     <path id="mdde673ad22" d="M 287.58733 -37.353862 
L 222.132784 -37.353862 
L 222.371674 -40.089684 
L 224.950617 -42.825506 
L 228.985944 -45.561328 
L 233.381073 -48.29715 
L 237.223618 -51.032973 
L 240.012241 -53.768795 
L 241.65905 -56.504617 
L 242.343862 -59.240439 
L 242.341027 -61.976261 
L 241.901578 -64.712083 
L 241.209113 -67.447906 
L 240.385346 -70.183728 
L 239.512895 -72.91955 
L 238.654418 -75.655372 
L 237.861291 -78.391194 
L 237.173262 -81.127016 
L 236.613413 -83.862839 
L 236.18324 -86.598661 
L 235.862086 -89.334483 
L 235.613349 -92.070305 
L 235.396858 -94.806127 
L 235.183785 -97.54195 
L 234.968868 -100.277772 
L 234.77516 -103.013594 
L 234.648841 -105.749416 
L 234.64531 -108.485238 
L 234.811709 -111.22106 
L 235.17324 -113.956883 
L 235.729107 -116.692705 
L 236.458634 -119.428527 
L 237.332202 -122.164349 
L 238.319251 -124.900171 
L 239.388739 -127.635993 
L 240.503701 -130.371816 
L 241.616283 -133.107638 
L 242.669294 -135.84346 
L 243.605726 -138.579282 
L 244.382265 -141.315104 
L 244.980171 -144.050926 
L 245.408282 -146.786749 
L 245.697075 -149.522571 
L 245.887191 -152.258393 
L 246.018219 -154.994215 
L 246.122499 -157.730037 
L 246.225051 -160.465859 
L 246.346866 -163.201682 
L 246.507431 -165.937504 
L 246.724003 -168.673326 
L 247.008137 -171.409148 
L 247.36188 -174.14497 
L 247.775885 -176.880793 
L 248.230357 -179.616615 
L 248.698765 -182.352437 
L 249.153645 -185.088259 
L 249.573301 -187.824081 
L 249.947198 -190.559903 
L 250.277554 -193.295726 
L 250.575841 -196.031548 
L 250.855672 -198.76737 
L 251.125796 -201.503192 
L 251.386991 -204.239014 
L 251.634031 -206.974836 
L 251.860645 -209.710659 
L 252.063837 -212.446481 
L 252.245039 -215.182303 
L 252.408216 -217.918125 
L 252.55715 -220.653947 
L 252.694209 -223.389769 
L 252.821343 -226.125592 
L 252.942044 -228.861414 
L 253.062211 -231.597236 
L 253.188695 -234.333058 
L 253.326155 -237.06888 
L 253.474296 -239.804702 
L 253.627439 -242.540525 
L 253.776858 -245.276347 
L 253.914477 -248.012169 
L 254.035816 -250.747991 
L 254.140699 -253.483813 
L 254.231822 -256.219635 
L 254.312407 -258.955458 
L 254.384437 -261.69128 
L 254.448225 -264.427102 
L 254.50317 -267.162924 
L 254.54895 -269.898746 
L 254.586336 -272.634569 
L 254.617276 -275.370391 
L 254.644326 -278.106213 
L 254.66984 -280.842035 
L 254.695323 -283.577857 
L 254.721158 -286.313679 
L 254.746713 -289.049502 
L 254.7707 -291.785324 
L 254.791663 -294.521146 
L 254.808487 -297.256968 
L 254.820783 -299.99279 
L 254.829028 -302.728612 
L 254.834367 -305.464435 
L 254.838168 -308.200257 
L 254.881946 -308.200257 
L 254.881946 -308.200257 
L 254.885747 -305.464435 
L 254.891086 -302.728612 
L 254.899331 -299.99279 
L 254.911627 -297.256968 
L 254.92845 -294.521146 
L 254.949414 -291.785324 
L 254.973401 -289.049502 
L 254.998956 -286.313679 
L 255.024791 -283.577857 
L 255.050273 -280.842035 
L 255.075787 -278.106213 
L 255.102837 -275.370391 
L 255.133777 -272.634569 
L 255.171163 -269.898746 
L 255.216943 -267.162924 
L 255.271889 -264.427102 
L 255.335676 -261.69128 
L 255.407706 -258.955458 
L 255.488292 -256.219635 
L 255.579414 -253.483813 
L 255.684298 -250.747991 
L 255.805636 -248.012169 
L 255.943256 -245.276347 
L 256.092674 -242.540525 
L 256.245818 -239.804702 
L 256.393959 -237.06888 
L 256.531419 -234.333058 
L 256.657903 -231.597236 
L 256.77807 -228.861414 
L 256.898771 -226.125592 
L 257.025905 -223.389769 
L 257.162964 -220.653947 
L 257.311898 -217.918125 
L 257.475075 -215.182303 
L 257.656276 -212.446481 
L 257.859469 -209.710659 
L 258.086083 -206.974836 
L 258.333122 -204.239014 
L 258.594318 -201.503192 
L 258.864441 -198.76737 
L 259.144272 -196.031548 
L 259.44256 -193.295726 
L 259.772915 -190.559903 
L 260.146813 -187.824081 
L 260.566468 -185.088259 
L 261.021349 -182.352437 
L 261.489756 -179.616615 
L 261.944229 -176.880793 
L 262.358233 -174.14497 
L 262.711977 -171.409148 
L 262.99611 -168.673326 
L 263.212682 -165.937504 
L 263.373248 -163.201682 
L 263.495062 -160.465859 
L 263.597615 -157.730037 
L 263.701895 -154.994215 
L 263.832922 -152.258393 
L 264.023039 -149.522571 
L 264.311832 -146.786749 
L 264.739943 -144.050926 
L 265.337848 -141.315104 
L 266.114388 -138.579282 
L 267.05082 -135.84346 
L 268.10383 -133.107638 
L 269.216412 -130.371816 
L 270.331375 -127.635993 
L 271.400862 -124.900171 
L 272.387912 -122.164349 
L 273.26148 -119.428527 
L 273.991007 -116.692705 
L 274.546873 -113.956883 
L 274.908404 -111.22106 
L 275.074803 -108.485238 
L 275.071273 -105.749416 
L 274.944953 -103.013594 
L 274.751245 -100.277772 
L 274.536329 -97.54195 
L 274.323256 -94.806127 
L 274.106764 -92.070305 
L 273.858028 -89.334483 
L 273.536874 -86.598661 
L 273.106701 -83.862839 
L 272.546852 -81.127016 
L 271.858823 -78.391194 
L 271.065696 -75.655372 
L 270.207219 -72.91955 
L 269.334767 -70.183728 
L 268.511 -67.447906 
L 267.818535 -64.712083 
L 267.379087 -61.976261 
L 267.376251 -59.240439 
L 268.061063 -56.504617 
L 269.707872 -53.768795 
L 272.496495 -51.032973 
L 276.339041 -48.29715 
L 280.73417 -45.561328 
L 284.769497 -42.825506 
L 287.34844 -40.089684 
L 287.58733 -37.353862 
z
"/>
    </defs>
    <g clip-path="url(#p0cfce62df0)">
     <use xlink:href="#mdde673ad22" x="0" y="419.271987" style="fill: #f08080; fill-opacity: 0.3"/>
    </g>
   </g>
   <g id="patch_3">
    <path d="M 58.49642 381.918125 
L 123.950966 381.918125 
L 123.950966 318.276622 
L 58.49642 318.276622 
L 58.49642 381.918125 
z
" clip-path="url(#p0cfce62df0)" style="fill: #b6d7a8; opacity: 0.3"/>
   </g>
   <g id="patch_4">
    <path d="M 222.132784 374.51795 
L 287.58733 374.51795 
L 287.58733 290.155958 
L 222.132784 290.155958 
L 222.132784 374.51795 
z
" clip-path="url(#p0cfce62df0)" style="fill: #f08080; opacity: 0.3"/>
   </g>
   <g id="matplotlib.axis_1">
    <g id="xtick_1">
     <g id="line2d_1">
      <defs>
       <path id="m82c7aa16c5" d="M 0 0 
L 0 3.5 
" style="stroke: #000000; stroke-width: 0.8"/>
      </defs>
      <g>
       <use xlink:href="#m82c7aa16c5" x="91.223693" y="386.918125" style="stroke: #000000; stroke-width: 0.8"/>
      </g>
     </g>
     <g id="text_1">
      <text style="font-size: 10px; font-family: 'DejaVu Sans', 'Bitstream Vera Sans', 'Computer Modern Sans Serif', 'Lucida Grande', 'Verdana', 'Geneva', 'Lucid', 'Arial', 'Helvetica', 'Avant Garde', sans-serif" transform="translate(78.442738 410.601426) rotate(-45)">WT</text>
     </g>
    </g>
    <g id="xtick_2">
     <g id="line2d_2">
      <g>
       <use xlink:href="#m82c7aa16c5" x="254.860057" y="386.918125" style="stroke: #000000; stroke-width: 0.8"/>
      </g>
     </g>
     <g id="text_2">
      <text style="font-size: 10px; font-family: 'DejaVu Sans', 'Bitstream Vera Sans', 'Computer Modern Sans Serif', 'Lucida Grande', 'Verdana', 'Geneva', 'Lucid', 'Arial', 'Helvetica', 'Avant Garde', sans-serif" transform="translate(243.575075 409.105453) rotate(-45)">KO</text>
     </g>
    </g>
   </g>
   <g id="matplotlib.axis_2">
    <g id="ytick_1">
     <g id="line2d_3">
      <defs>
       <path id="mc5ef416d3f" d="M 0 0 
L -3.5 0 
" style="stroke: #000000; stroke-width: 0.8"/>
      </defs>
      <g>
       <use xlink:href="#mc5ef416d3f" x="42.041875" y="381.918125" style="stroke: #000000; stroke-width: 0.8"/>
      </g>
     </g>
     <g id="text_3">
      <text style="font-size: 10px; font-family: 'DejaVu Sans', 'Bitstream Vera Sans', 'Computer Modern Sans Serif', 'Lucida Grande', 'Verdana', 'Geneva', 'Lucid', 'Arial', 'Helvetica', 'Avant Garde', sans-serif; text-anchor: end" x="35.041875" y="385.717344" transform="rotate(-0 35.041875 385.717344)">0.0</text>
     </g>
    </g>
    <g id="ytick_2">
     <g id="line2d_4">
      <g>
       <use xlink:href="#mc5ef416d3f" x="42.041875" y="339.441122" style="stroke: #000000; stroke-width: 0.8"/>
      </g>
     </g>
     <g id="text_4">
      <text style="font-size: 10px; font-family: 'DejaVu Sans', 'Bitstream Vera Sans', 'Computer Modern Sans Serif', 'Lucida Grande', 'Verdana', 'Geneva', 'Lucid', 'Arial', 'Helvetica', 'Avant Garde', sans-serif; text-anchor: end" x="35.041875" y="343.240341" transform="rotate(-0 35.041875 343.240341)">0.1</text>
     </g>
    </g>
    <g id="ytick_3">
     <g id="line2d_5">
      <g>
       <use xlink:href="#mc5ef416d3f" x="42.041875" y="296.964119" style="stroke: #000000; stroke-width: 0.8"/>
      </g>
     </g>
     <g id="text_5">
      <text style="font-size: 10px; font-family: 'DejaVu Sans', 'Bitstream Vera Sans', 'Computer Modern Sans Serif', 'Lucida Grande', 'Verdana', 'Geneva', 'Lucid', 'Arial', 'Helvetica', 'Avant Garde', sans-serif; text-anchor: end" x="35.041875" y="300.763338" transform="rotate(-0 35.041875 300.763338)">0.2</text>
     </g>
    </g>
    <g id="ytick_4">
     <g id="line2d_6">
      <g>
       <use xlink:href="#mc5ef416d3f" x="42.041875" y="254.487116" style="stroke: #000000; stroke-width: 0.8"/>
      </g>
     </g>
     <g id="text_6">
      <text style="font-size: 10px; font-family: 'DejaVu Sans', 'Bitstream Vera Sans', 'Computer Modern Sans Serif', 'Lucida Grande', 'Verdana', 'Geneva', 'Lucid', 'Arial', 'Helvetica', 'Avant Garde', sans-serif; text-anchor: end" x="35.041875" y="258.286335" transform="rotate(-0 35.041875 258.286335)">0.3</text>
     </g>
    </g>
    <g id="ytick_5">
     <g id="line2d_7">
      <g>
       <use xlink:href="#mc5ef416d3f" x="42.041875" y="212.010113" style="stroke: #000000; stroke-width: 0.8"/>
      </g>
     </g>
     <g id="text_7">
      <text style="font-size: 10px; font-family: 'DejaVu Sans', 'Bitstream Vera Sans', 'Computer Modern Sans Serif', 'Lucida Grande', 'Verdana', 'Geneva', 'Lucid', 'Arial', 'Helvetica', 'Avant Garde', sans-serif; text-anchor: end" x="35.041875" y="215.809332" transform="rotate(-0 35.041875 215.809332)">0.4</text>
     </g>
    </g>
    <g id="ytick_6">
     <g id="line2d_8">
      <g>
       <use xlink:href="#mc5ef416d3f" x="42.041875" y="169.53311" style="stroke: #000000; stroke-width: 0.8"/>
      </g>
     </g>
     <g id="text_8">
      <text style="font-size: 10px; font-family: 'DejaVu Sans', 'Bitstream Vera Sans', 'Computer Modern Sans Serif', 'Lucida Grande', 'Verdana', 'Geneva', 'Lucid', 'Arial', 'Helvetica', 'Avant Garde', sans-serif; text-anchor: end" x="35.041875" y="173.332329" transform="rotate(-0 35.041875 173.332329)">0.5</text>
     </g>
    </g>
    <g id="ytick_7">
     <g id="line2d_9">
      <g>
       <use xlink:href="#mc5ef416d3f" x="42.041875" y="127.056107" style="stroke: #000000; stroke-width: 0.8"/>
      </g>
     </g>
     <g id="text_9">
      <text style="font-size: 10px; font-family: 'DejaVu Sans', 'Bitstream Vera Sans', 'Computer Modern Sans Serif', 'Lucida Grande', 'Verdana', 'Geneva', 'Lucid', 'Arial', 'Helvetica', 'Avant Garde', sans-serif; text-anchor: end" x="35.041875" y="130.855326" transform="rotate(-0 35.041875 130.855326)">0.6</text>
     </g>
    </g>
    <g id="ytick_8">
     <g id="line2d_10">
      <g>
       <use xlink:href="#mc5ef416d3f" x="42.041875" y="84.579104" style="stroke: #000000; stroke-width: 0.8"/>
      </g>
     </g>
     <g id="text_10">
      <text style="font-size: 10px; font-family: 'DejaVu Sans', 'Bitstream Vera Sans', 'Computer Modern Sans Serif', 'Lucida Grande', 'Verdana', 'Geneva', 'Lucid', 'Arial', 'Helvetica', 'Avant Garde', sans-serif; text-anchor: end" x="35.041875" y="88.378323" transform="rotate(-0 35.041875 88.378323)">0.7</text>
     </g>
    </g>
    <g id="ytick_9">
     <g id="line2d_11">
      <g>
       <use xlink:href="#mc5ef416d3f" x="42.041875" y="42.102102" style="stroke: #000000; stroke-width: 0.8"/>
      </g>
     </g>
     <g id="text_11">
      <text style="font-size: 10px; font-family: 'DejaVu Sans', 'Bitstream Vera Sans', 'Computer Modern Sans Serif', 'Lucida Grande', 'Verdana', 'Geneva', 'Lucid', 'Arial', 'Helvetica', 'Avant Garde', sans-serif; text-anchor: end" x="35.041875" y="45.90132" transform="rotate(-0 35.041875 45.90132)">0.8</text>
     </g>
    </g>
   </g>
   <g id="line2d_12">
    <path d="M 91.223693 381.918125 
L 91.223693 381.918125 
" clip-path="url(#p0cfce62df0)" style="fill: none; stroke: #b6d7a8; stroke-width: 1.2"/>
   </g>
   <g id="line2d_13">
    <path d="M 91.223693 318.276622 
L 91.223693 225.774438 
" clip-path="url(#p0cfce62df0)" style="fill: none; stroke: #b6d7a8; stroke-width: 1.2"/>
   </g>
   <g id="line2d_14">
    <path d="M 58.49642 348.617339 
L 123.950966 348.617339 
" clip-path="url(#p0cfce62df0)" style="fill: none; stroke: #b6d7a8; stroke-width: 1.2"/>
   </g>
   <g id="line2d_15"/>
   <g id="line2d_16">
    <path d="M 254.860057 374.51795 
L 254.860057 381.918125 
" clip-path="url(#p0cfce62df0)" style="fill: none; stroke: #f08080; stroke-width: 1.2"/>
   </g>
   <g id="line2d_17">
    <path d="M 254.860057 290.155958 
L 254.860057 163.612971 
" clip-path="url(#p0cfce62df0)" style="fill: none; stroke: #f08080; stroke-width: 1.2"/>
   </g>
   <g id="line2d_18">
    <path d="M 222.132784 325.676797 
L 287.58733 325.676797 
" clip-path="url(#p0cfce62df0)" style="fill: none; stroke: #f08080; stroke-width: 1.2"/>
   </g>
   <g id="line2d_19"/>
   <g id="patch_5">
    <path d="M 58.49642 381.918125 
L 123.950966 381.918125 
L 123.950966 318.276622 
L 58.49642 318.276622 
L 58.49642 381.918125 
L 58.49642 381.918125 
z
" clip-path="url(#p0cfce62df0)" style="fill: none; stroke: #b6d7a8; stroke-width: 1.2; stroke-linejoin: miter"/>
   </g>
   <g id="patch_6">
    <path d="M 222.132784 374.51795 
L 287.58733 374.51795 
L 287.58733 290.155958 
L 222.132784 290.155958 
L 222.132784 374.51795 
L 222.132784 374.51795 
z
" clip-path="url(#p0cfce62df0)" style="fill: none; stroke: #f08080; stroke-width: 1.2; stroke-linejoin: miter"/>
   </g>
   <g id="line2d_20">
    <path d="M 91.223693 72.069849 
L 91.223693 66.111228 
L 254.860057 66.111228 
L 254.860057 72.069849 
" clip-path="url(#p0cfce62df0)" style="fill: none; stroke: #000000; stroke-width: 0.8; stroke-linecap: square"/>
   </g>
   <g id="patch_7">
    <path d="M 42.041875 381.918125 
L 42.041875 42.102102 
" style="fill: none; stroke: #000000; stroke-width: 0.8; stroke-linejoin: miter; stroke-linecap: square"/>
   </g>
   <g id="patch_8">
    <path d="M 91.223693 386.918125 
L 254.860057 386.918125 
" style="fill: none; stroke: #000000; stroke-width: 0.8; stroke-linejoin: miter; stroke-linecap: square"/>
   </g>
   <g id="text_12">
    <text style="font-size: 8px; font-family: 'DejaVu Sans', 'Bitstream Vera Sans', 'Computer Modern Sans Serif', 'Lucida Grande', 'Verdana', 'Geneva', 'Lucid', 'Arial', 'Helvetica', 'Avant Garde', sans-serif; text-anchor: middle" x="173.041875" y="64.447478" transform="rotate(-0 173.041875 64.447478)">***</text>
   </g>
   <g id="text_13">
    <text style="font-size: 12px; font-family: 'DejaVu Sans', 'Bitstream Vera Sans', 'Computer Modern Sans Serif', 'Lucida Grande', 'Verdana', 'Geneva', 'Lucid', 'Arial', 'Helvetica', 'Avant Garde', sans-serif; text-anchor: middle" x="173.041875" y="16.318125" transform="rotate(-0 173.041875 16.318125)">F_Mice_IIB: REACTOME_PYRUVATE_METABOLISM Scores</text>
   </g>
  </g>
 </g>
 <defs>
  <clipPath id="p0cfce62df0">
   <rect x="47.041875" y="36.318125" width="252" height="345.6"/>
  </clipPath>
 </defs>
</svg>
