<?xml version="1.0" encoding="utf-8" standalone="no"?>
<!DOCTYPE svg PUBLIC "-//W3C//DTD SVG 1.1//EN"
  "http://www.w3.org/Graphics/SVG/1.1/DTD/svg11.dtd">
<svg xmlns:xlink="http://www.w3.org/1999/xlink" width="419.180625pt" height="424.127822pt" viewBox="0 0 419.180625 424.127822" xmlns="http://www.w3.org/2000/svg" version="1.1">
 <metadata>
  <rdf:RDF xmlns:dc="http://purl.org/dc/elements/1.1/" xmlns:cc="http://creativecommons.org/ns#" xmlns:rdf="http://www.w3.org/1999/02/22-rdf-syntax-ns#">
   <cc:Work>
    <dc:type rdf:resource="http://purl.org/dc/dcmitype/StillImage"/>
    <dc:date>2026-05-11T23:26:58.074112</dc:date>
    <dc:format>image/svg+xml</dc:format>
    <dc:creator>
     <cc:Agent>
      <dc:title>Matplotlib v3.10.9, https://matplotlib.org/</dc:title>
     </cc:Agent>
    </dc:creator>
   </cc:Work>
  </rdf:RDF>
 </metadata>
 <defs>
  <style type="text/css">*{stroke-linejoin: round; stroke-linecap: butt}</style>
 </defs>
 <g id="figure_1">
  <g id="patch_1">
   <path d="M 0 424.127822 
L 419.180625 424.127822 
L 419.180625 0 
L 0 0 
L 0 424.127822 
z
" style="fill: none"/>
  </g>
  <g id="axes_1">
   <g id="patch_2">
    <path d="M 83.590312 381.918125 
L 335.590312 381.918125 
L 335.590312 36.318125 
L 83.590312 36.318125 
L 83.590312 381.918125 
z
" style="fill: none"/>
   </g>
   <g id="FillBetweenPolyCollection_1">
    <defs>
     <path id="m7e1f7e3148" d="M 127.818399 -57.565157 
L 127.725862 -57.565157 
L 127.713066 -59.725055 
L 127.705179 -61.884954 
L 127.700795 -64.044853 
L 127.695449 -66.204752 
L 127.683574 -68.36465 
L 127.659672 -70.524549 
L 127.618997 -72.684448 
L 127.556959 -74.844347 
L 127.4658 -77.004245 
L 127.333234 -79.164144 
L 127.149326 -81.324043 
L 126.916046 -83.483942 
L 126.645967 -85.64384 
L 126.346933 -87.803739 
L 126.007974 -89.963638 
L 125.606598 -92.123536 
L 125.133481 -94.283435 
L 124.60218 -96.443334 
L 124.025068 -98.603233 
L 123.380301 -100.763131 
L 122.608173 -102.92303 
L 121.643165 -105.082929 
L 120.453506 -107.242828 
L 119.06132 -109.402726 
L 117.537288 -111.562625 
L 115.970911 -113.722524 
L 114.42869 -115.882423 
L 112.930719 -118.042321 
L 111.454183 -120.20222 
L 109.945436 -122.362119 
L 108.350101 -124.522018 
L 106.669541 -126.681916 
L 104.975253 -128.841815 
L 103.33378 -131.001714 
L 101.749716 -133.161613 
L 100.225185 -135.321511 
L 98.825375 -137.48141 
L 97.623808 -139.641309 
L 96.629177 -141.801208 
L 95.836016 -143.961106 
L 95.301459 -146.121005 
L 95.082706 -148.280904 
L 95.115612 -150.440802 
L 95.220104 -152.600701 
L 95.22869 -154.7606 
L 95.115517 -156.920499 
L 95.044858 -159.080397 
L 95.284323 -161.240296 
L 96.00529 -163.400195 
L 97.142236 -165.560094 
L 98.463714 -167.719992 
L 99.77866 -169.879891 
L 101.055778 -172.03979 
L 102.362131 -174.199689 
L 103.752145 -176.359587 
L 105.244176 -178.519486 
L 106.83642 -180.679385 
L 108.482911 -182.839284 
L 110.087812 -184.999182 
L 111.570912 -187.159081 
L 112.93064 -189.31898 
L 114.225048 -191.478879 
L 115.495654 -193.638777 
L 116.728344 -195.798676 
L 117.896184 -197.958575 
L 119.005918 -200.118474 
L 120.069386 -202.278372 
L 121.061054 -204.438271 
L 121.943885 -206.59817 
L 122.713542 -208.758069 
L 123.38436 -210.917967 
L 123.954373 -213.077866 
L 124.417824 -215.237765 
L 124.799641 -217.397663 
L 125.14903 -219.557562 
L 125.500549 -221.717461 
L 125.855431 -223.87736 
L 126.195631 -226.037258 
L 126.501485 -228.197157 
L 126.758307 -230.357056 
L 126.961469 -232.516955 
L 127.118584 -234.676853 
L 127.240722 -236.836752 
L 127.334205 -238.996651 
L 127.404578 -241.15655 
L 127.461885 -243.316448 
L 127.515837 -245.476347 
L 127.568251 -247.636246 
L 127.61413 -249.796145 
L 127.649172 -251.956043 
L 127.674049 -254.115942 
L 127.692602 -256.275841 
L 127.708211 -258.43574 
L 127.721681 -260.595638 
L 127.731283 -262.755537 
L 127.735173 -264.915436 
L 127.734663 -267.075335 
L 127.734414 -269.235233 
L 127.738608 -271.395132 
L 127.805653 -271.395132 
L 127.805653 -271.395132 
L 127.809848 -269.235233 
L 127.809599 -267.075335 
L 127.809088 -264.915436 
L 127.812978 -262.755537 
L 127.82258 -260.595638 
L 127.836051 -258.43574 
L 127.851659 -256.275841 
L 127.870213 -254.115942 
L 127.895089 -251.956043 
L 127.930131 -249.796145 
L 127.97601 -247.636246 
L 128.028424 -245.476347 
L 128.082376 -243.316448 
L 128.139683 -241.15655 
L 128.210056 -238.996651 
L 128.30354 -236.836752 
L 128.425677 -234.676853 
L 128.582792 -232.516955 
L 128.785954 -230.357056 
L 129.042776 -228.197157 
L 129.34863 -226.037258 
L 129.688831 -223.87736 
L 130.043712 -221.717461 
L 130.395232 -219.557562 
L 130.744621 -217.397663 
L 131.126437 -215.237765 
L 131.589888 -213.077866 
L 132.159901 -210.917967 
L 132.830719 -208.758069 
L 133.600377 -206.59817 
L 134.483208 -204.438271 
L 135.474875 -202.278372 
L 136.538343 -200.118474 
L 137.648078 -197.958575 
L 138.815917 -195.798676 
L 140.048607 -193.638777 
L 141.319213 -191.478879 
L 142.613621 -189.31898 
L 143.973349 -187.159081 
L 145.45645 -184.999182 
L 147.06135 -182.839284 
L 148.707841 -180.679385 
L 150.300085 -178.519486 
L 151.792116 -176.359587 
L 153.182131 -174.199689 
L 154.488484 -172.03979 
L 155.765602 -169.879891 
L 157.080548 -167.719992 
L 158.402025 -165.560094 
L 159.538972 -163.400195 
L 160.259938 -161.240296 
L 160.499403 -159.080397 
L 160.428745 -156.920499 
L 160.315572 -154.7606 
L 160.324157 -152.600701 
L 160.428649 -150.440802 
L 160.461556 -148.280904 
L 160.242803 -146.121005 
L 159.708246 -143.961106 
L 158.915085 -141.801208 
L 157.920454 -139.641309 
L 156.718886 -137.48141 
L 155.319077 -135.321511 
L 153.794545 -133.161613 
L 152.210481 -131.001714 
L 150.569008 -128.841815 
L 148.874721 -126.681916 
L 147.194161 -124.522018 
L 145.598826 -122.362119 
L 144.090078 -120.20222 
L 142.613542 -118.042321 
L 141.115571 -115.882423 
L 139.573351 -113.722524 
L 138.006973 -111.562625 
L 136.482941 -109.402726 
L 135.090755 -107.242828 
L 133.901097 -105.082929 
L 132.936088 -102.92303 
L 132.163961 -100.763131 
L 131.519193 -98.603233 
L 130.942081 -96.443334 
L 130.41078 -94.283435 
L 129.937663 -92.123536 
L 129.536287 -89.963638 
L 129.197329 -87.803739 
L 128.898294 -85.64384 
L 128.628216 -83.483942 
L 128.394935 -81.324043 
L 128.211028 -79.164144 
L 128.078462 -77.004245 
L 127.987303 -74.844347 
L 127.925265 -72.684448 
L 127.884589 -70.524549 
L 127.860688 -68.36465 
L 127.848813 -66.204752 
L 127.843467 -64.044853 
L 127.839082 -61.884954 
L 127.831195 -59.725055 
L 127.818399 -57.565157 
z
"/>
    </defs>
    <g clip-path="url(#p2591af1c62)">
     <use xlink:href="#m7e1f7e3148" x="0" y="424.127822" style="fill: #b6d7a8; fill-opacity: 0.3"/>
    </g>
   </g>
   <g id="FillBetweenPolyCollection_2">
    <defs>
     <path id="m69a0182889" d="M 291.422864 -62.322985 
L 291.394124 -62.322985 
L 291.387029 -64.869743 
L 291.374306 -67.416501 
L 291.348416 -69.963259 
L 291.307945 -72.510017 
L 291.256365 -75.056775 
L 291.187645 -77.603534 
L 291.091893 -80.150292 
L 290.975638 -82.69705 
L 290.84944 -85.243808 
L 290.698905 -87.790566 
L 290.491542 -90.337324 
L 290.204293 -92.884083 
L 289.836486 -95.430841 
L 289.40722 -97.977599 
L 288.936465 -100.524357 
L 288.435572 -103.071115 
L 287.901053 -105.617873 
L 287.289439 -108.164632 
L 286.533536 -110.71139 
L 285.581174 -113.258148 
L 284.41858 -115.804906 
L 283.108877 -118.351664 
L 281.761605 -120.898422 
L 280.404494 -123.44518 
L 278.982598 -125.991939 
L 277.505011 -128.538697 
L 276.025048 -131.085455 
L 274.550144 -133.632213 
L 273.097484 -136.178971 
L 271.672923 -138.725729 
L 270.23532 -141.272488 
L 268.792881 -143.819246 
L 267.379544 -146.366004 
L 265.948624 -148.912762 
L 264.41122 -151.45952 
L 262.767362 -154.006278 
L 261.205836 -156.553037 
L 260.071303 -159.099795 
L 259.599586 -161.646553 
L 259.60051 -164.193311 
L 259.601764 -166.740069 
L 259.389869 -169.286827 
L 259.097168 -171.833586 
L 258.84039 -174.380344 
L 258.681222 -176.927102 
L 258.76774 -179.47386 
L 259.252373 -182.020618 
L 260.176124 -184.567376 
L 261.414229 -187.114134 
L 262.733371 -189.660893 
L 264.007533 -192.207651 
L 265.285793 -194.754409 
L 266.640168 -197.301167 
L 268.061525 -199.847925 
L 269.512526 -202.394683 
L 271.000964 -204.941442 
L 272.542233 -207.4882 
L 274.114879 -210.034958 
L 275.657011 -212.581716 
L 277.097087 -215.128474 
L 278.447398 -217.675232 
L 279.779124 -220.221991 
L 281.082624 -222.768749 
L 282.282224 -225.315507 
L 283.366634 -227.862265 
L 284.393792 -230.409023 
L 285.382603 -232.955781 
L 286.282169 -235.50254 
L 287.036563 -238.049298 
L 287.636244 -240.596056 
L 288.126634 -243.142814 
L 288.565832 -245.689572 
L 288.970485 -248.23633 
L 289.334429 -250.783088 
L 289.673001 -253.329847 
L 290.007282 -255.876605 
L 290.318251 -258.423363 
L 290.558333 -260.970121 
L 290.714752 -263.516879 
L 290.817956 -266.063637 
L 290.897242 -268.610396 
L 290.970563 -271.157154 
L 291.054051 -273.703912 
L 291.147929 -276.25067 
L 291.232216 -278.797428 
L 291.289532 -281.344186 
L 291.319945 -283.890945 
L 291.333411 -286.437703 
L 291.339008 -288.984461 
L 291.344105 -291.531219 
L 291.355156 -294.077977 
L 291.372963 -296.624735 
L 291.390804 -299.171494 
L 291.401816 -301.718252 
L 291.40503 -304.26501 
L 291.403025 -306.811768 
L 291.398974 -309.358526 
L 291.396328 -311.905284 
L 291.397323 -314.452042 
L 291.419666 -314.452042 
L 291.419666 -314.452042 
L 291.420661 -311.905284 
L 291.418014 -309.358526 
L 291.413964 -306.811768 
L 291.411959 -304.26501 
L 291.415172 -301.718252 
L 291.426184 -299.171494 
L 291.444026 -296.624735 
L 291.461833 -294.077977 
L 291.472884 -291.531219 
L 291.47798 -288.984461 
L 291.483578 -286.437703 
L 291.497043 -283.890945 
L 291.527456 -281.344186 
L 291.584772 -278.797428 
L 291.66906 -276.25067 
L 291.762937 -273.703912 
L 291.846426 -271.157154 
L 291.919747 -268.610396 
L 291.999033 -266.063637 
L 292.102236 -263.516879 
L 292.258656 -260.970121 
L 292.498738 -258.423363 
L 292.809707 -255.876605 
L 293.143988 -253.329847 
L 293.48256 -250.783088 
L 293.846504 -248.23633 
L 294.251157 -245.689572 
L 294.690354 -243.142814 
L 295.180745 -240.596056 
L 295.780425 -238.049298 
L 296.53482 -235.50254 
L 297.434386 -232.955781 
L 298.423196 -230.409023 
L 299.450354 -227.862265 
L 300.534765 -225.315507 
L 301.734364 -222.768749 
L 303.037864 -220.221991 
L 304.36959 -217.675232 
L 305.719902 -215.128474 
L 307.159978 -212.581716 
L 308.70211 -210.034958 
L 310.274755 -207.4882 
L 311.816025 -204.941442 
L 313.304463 -202.394683 
L 314.755463 -199.847925 
L 316.17682 -197.301167 
L 317.531195 -194.754409 
L 318.809456 -192.207651 
L 320.083617 -189.660893 
L 321.40276 -187.114134 
L 322.640865 -184.567376 
L 323.564616 -182.020618 
L 324.049249 -179.47386 
L 324.135767 -176.927102 
L 323.976599 -174.380344 
L 323.71982 -171.833586 
L 323.427119 -169.286827 
L 323.215224 -166.740069 
L 323.216479 -164.193311 
L 323.217403 -161.646553 
L 322.745685 -159.099795 
L 321.611152 -156.553037 
L 320.049627 -154.006278 
L 318.405768 -151.45952 
L 316.868365 -148.912762 
L 315.437445 -146.366004 
L 314.024108 -143.819246 
L 312.581669 -141.272488 
L 311.144066 -138.725729 
L 309.719504 -136.178971 
L 308.266845 -133.632213 
L 306.79194 -131.085455 
L 305.311977 -128.538697 
L 303.834391 -125.991939 
L 302.412495 -123.44518 
L 301.055383 -120.898422 
L 299.708111 -118.351664 
L 298.398409 -115.804906 
L 297.235815 -113.258148 
L 296.283453 -110.71139 
L 295.52755 -108.164632 
L 294.915935 -105.617873 
L 294.381417 -103.071115 
L 293.880523 -100.524357 
L 293.409768 -97.977599 
L 292.980503 -95.430841 
L 292.612696 -92.884083 
L 292.325447 -90.337324 
L 292.118083 -87.790566 
L 291.967548 -85.243808 
L 291.841351 -82.69705 
L 291.725096 -80.150292 
L 291.629343 -77.603534 
L 291.560624 -75.056775 
L 291.509044 -72.510017 
L 291.468573 -69.963259 
L 291.442683 -67.416501 
L 291.429959 -64.869743 
L 291.422864 -62.322985 
z
"/>
    </defs>
    <g clip-path="url(#p2591af1c62)">
     <use xlink:href="#m69a0182889" x="0" y="424.127822" style="fill: #f08080; fill-opacity: 0.3"/>
    </g>
   </g>
   <g id="patch_3">
    <path d="M 95.044858 288.022676 
L 160.499403 288.022676 
L 160.499403 251.056358 
L 95.044858 251.056358 
L 95.044858 288.022676 
z
" clip-path="url(#p2591af1c62)" style="fill: #b6d7a8; opacity: 0.3"/>
   </g>
   <g id="patch_4">
    <path d="M 258.681222 273.01832 
L 324.135767 273.01832 
L 324.135767 229.323689 
L 258.681222 229.323689 
L 258.681222 273.01832 
z
" clip-path="url(#p2591af1c62)" style="fill: #f08080; opacity: 0.3"/>
   </g>
   <g id="matplotlib.axis_1">
    <g id="xtick_1">
     <g id="line2d_1">
      <defs>
       <path id="m5d75a41512" d="M 0 0 
L 0 3.5 
" style="stroke: #000000; stroke-width: 0.8"/>
      </defs>
      <g>
       <use xlink:href="#m5d75a41512" x="127.772131" y="386.918125" style="stroke: #000000; stroke-width: 0.8"/>
      </g>
     </g>
     <g id="text_1">
      <text style="font-size: 10px; font-family: 'DejaVu Sans', 'Bitstream Vera Sans', 'Computer Modern Sans Serif', 'Lucida Grande', 'Verdana', 'Geneva', 'Lucid', 'Arial', 'Helvetica', 'Avant Garde', sans-serif" transform="translate(110.135341 415.45726) rotate(-45)">OM6</text>
     </g>
    </g>
    <g id="xtick_2">
     <g id="line2d_2">
      <g>
       <use xlink:href="#m5d75a41512" x="291.408494" y="386.918125" style="stroke: #000000; stroke-width: 0.8"/>
      </g>
     </g>
     <g id="text_2">
      <text style="font-size: 10px; font-family: 'DejaVu Sans', 'Bitstream Vera Sans', 'Computer Modern Sans Serif', 'Lucida Grande', 'Verdana', 'Geneva', 'Lucid', 'Arial', 'Helvetica', 'Avant Garde', sans-serif" transform="translate(273.771704 415.45726) rotate(-45)">OM9</text>
     </g>
    </g>
   </g>
   <g id="matplotlib.axis_2">
    <g id="ytick_1">
     <g id="line2d_3">
      <defs>
       <path id="m4752cdff49" d="M 0 0 
L -3.5 0 
" style="stroke: #000000; stroke-width: 0.8"/>
      </defs>
      <g>
       <use xlink:href="#m4752cdff49" x="78.590312" y="381.918125" style="stroke: #000000; stroke-width: 0.8"/>
      </g>
     </g>
     <g id="text_3">
      <text style="font-size: 10px; font-family: 'DejaVu Sans', 'Bitstream Vera Sans', 'Computer Modern Sans Serif', 'Lucida Grande', 'Verdana', 'Geneva', 'Lucid', 'Arial', 'Helvetica', 'Avant Garde', sans-serif; text-anchor: end" x="71.590312" y="385.717344" transform="rotate(-0 71.590312 385.717344)">0.00</text>
     </g>
    </g>
    <g id="ytick_2">
     <g id="line2d_4">
      <g>
       <use xlink:href="#m4752cdff49" x="78.590312" y="330.159548" style="stroke: #000000; stroke-width: 0.8"/>
      </g>
     </g>
     <g id="text_4">
      <text style="font-size: 10px; font-family: 'DejaVu Sans', 'Bitstream Vera Sans', 'Computer Modern Sans Serif', 'Lucida Grande', 'Verdana', 'Geneva', 'Lucid', 'Arial', 'Helvetica', 'Avant Garde', sans-serif; text-anchor: end" x="71.590312" y="333.958767" transform="rotate(-0 71.590312 333.958767)">0.02</text>
     </g>
    </g>
    <g id="ytick_3">
     <g id="line2d_5">
      <g>
       <use xlink:href="#m4752cdff49" x="78.590312" y="278.400972" style="stroke: #000000; stroke-width: 0.8"/>
      </g>
     </g>
     <g id="text_5">
      <text style="font-size: 10px; font-family: 'DejaVu Sans', 'Bitstream Vera Sans', 'Computer Modern Sans Serif', 'Lucida Grande', 'Verdana', 'Geneva', 'Lucid', 'Arial', 'Helvetica', 'Avant Garde', sans-serif; text-anchor: end" x="71.590312" y="282.20019" transform="rotate(-0 71.590312 282.20019)">0.04</text>
     </g>
    </g>
    <g id="ytick_4">
     <g id="line2d_6">
      <g>
       <use xlink:href="#m4752cdff49" x="78.590312" y="226.642395" style="stroke: #000000; stroke-width: 0.8"/>
      </g>
     </g>
     <g id="text_6">
      <text style="font-size: 10px; font-family: 'DejaVu Sans', 'Bitstream Vera Sans', 'Computer Modern Sans Serif', 'Lucida Grande', 'Verdana', 'Geneva', 'Lucid', 'Arial', 'Helvetica', 'Avant Garde', sans-serif; text-anchor: end" x="71.590312" y="230.441614" transform="rotate(-0 71.590312 230.441614)">0.06</text>
     </g>
    </g>
    <g id="ytick_5">
     <g id="line2d_7">
      <g>
       <use xlink:href="#m4752cdff49" x="78.590312" y="174.883818" style="stroke: #000000; stroke-width: 0.8"/>
      </g>
     </g>
     <g id="text_7">
      <text style="font-size: 10px; font-family: 'DejaVu Sans', 'Bitstream Vera Sans', 'Computer Modern Sans Serif', 'Lucida Grande', 'Verdana', 'Geneva', 'Lucid', 'Arial', 'Helvetica', 'Avant Garde', sans-serif; text-anchor: end" x="71.590312" y="178.683037" transform="rotate(-0 71.590312 178.683037)">0.08</text>
     </g>
    </g>
    <g id="ytick_6">
     <g id="line2d_8">
      <g>
       <use xlink:href="#m4752cdff49" x="78.590312" y="123.125242" style="stroke: #000000; stroke-width: 0.8"/>
      </g>
     </g>
     <g id="text_8">
      <text style="font-size: 10px; font-family: 'DejaVu Sans', 'Bitstream Vera Sans', 'Computer Modern Sans Serif', 'Lucida Grande', 'Verdana', 'Geneva', 'Lucid', 'Arial', 'Helvetica', 'Avant Garde', sans-serif; text-anchor: end" x="71.590312" y="126.92446" transform="rotate(-0 71.590312 126.92446)">0.10</text>
     </g>
    </g>
    <g id="ytick_7">
     <g id="line2d_9">
      <g>
       <use xlink:href="#m4752cdff49" x="78.590312" y="71.366665" style="stroke: #000000; stroke-width: 0.8"/>
      </g>
     </g>
     <g id="text_9">
      <text style="font-size: 10px; font-family: 'DejaVu Sans', 'Bitstream Vera Sans', 'Computer Modern Sans Serif', 'Lucida Grande', 'Verdana', 'Geneva', 'Lucid', 'Arial', 'Helvetica', 'Avant Garde', sans-serif; text-anchor: end" x="71.590312" y="75.165884" transform="rotate(-0 71.590312 75.165884)">0.12</text>
     </g>
    </g>
   </g>
   <g id="line2d_10">
    <path d="M 127.772131 288.022676 
L 127.772131 343.024314 
" clip-path="url(#p2591af1c62)" style="fill: none; stroke: #b6d7a8; stroke-width: 1.2"/>
   </g>
   <g id="line2d_11">
    <path d="M 127.772131 251.056358 
L 127.772131 195.7896 
" clip-path="url(#p2591af1c62)" style="fill: none; stroke: #b6d7a8; stroke-width: 1.2"/>
   </g>
   <g id="line2d_12">
    <path d="M 95.044858 269.80822 
L 160.499403 269.80822 
" clip-path="url(#p2591af1c62)" style="fill: none; stroke: #b6d7a8; stroke-width: 1.2"/>
   </g>
   <g id="line2d_13"/>
   <g id="line2d_14">
    <path d="M 291.408494 273.01832 
L 291.408494 338.259321 
" clip-path="url(#p2591af1c62)" style="fill: none; stroke: #f08080; stroke-width: 1.2"/>
   </g>
   <g id="line2d_15">
    <path d="M 291.408494 229.323689 
L 291.408494 164.104185 
" clip-path="url(#p2591af1c62)" style="fill: none; stroke: #f08080; stroke-width: 1.2"/>
   </g>
   <g id="line2d_16">
    <path d="M 258.681222 251.285651 
L 324.135767 251.285651 
" clip-path="url(#p2591af1c62)" style="fill: none; stroke: #f08080; stroke-width: 1.2"/>
   </g>
   <g id="line2d_17"/>
   <g id="patch_5">
    <path d="M 95.044858 288.022676 
L 160.499403 288.022676 
L 160.499403 251.056358 
L 95.044858 251.056358 
L 95.044858 288.022676 
L 95.044858 288.022676 
z
" clip-path="url(#p2591af1c62)" style="fill: none; stroke: #b6d7a8; stroke-width: 1.2; stroke-linejoin: miter"/>
   </g>
   <g id="patch_6">
    <path d="M 258.681222 273.01832 
L 324.135767 273.01832 
L 324.135767 229.323689 
L 258.681222 229.323689 
L 258.681222 273.01832 
L 258.681222 273.01832 
z
" clip-path="url(#p2591af1c62)" style="fill: none; stroke: #f08080; stroke-width: 1.2; stroke-linejoin: miter"/>
   </g>
   <g id="line2d_18">
    <path d="M 127.772131 72.069849 
L 127.772131 66.111228 
L 291.408494 66.111228 
L 291.408494 72.069849 
" clip-path="url(#p2591af1c62)" style="fill: none; stroke: #000000; stroke-width: 0.8; stroke-linecap: square"/>
   </g>
   <g id="patch_7">
    <path d="M 78.590312 381.918125 
L 78.590312 71.366665 
" style="fill: none; stroke: #000000; stroke-width: 0.8; stroke-linejoin: miter; stroke-linecap: square"/>
   </g>
   <g id="patch_8">
    <path d="M 127.772131 386.918125 
L 291.408494 386.918125 
" style="fill: none; stroke: #000000; stroke-width: 0.8; stroke-linejoin: miter; stroke-linecap: square"/>
   </g>
   <g id="text_10">
    <text style="font-size: 8px; font-family: 'DejaVu Sans', 'Bitstream Vera Sans', 'Computer Modern Sans Serif', 'Lucida Grande', 'Verdana', 'Geneva', 'Lucid', 'Arial', 'Helvetica', 'Avant Garde', sans-serif; text-anchor: middle" x="209.590312" y="64.447478" transform="rotate(-0 209.590312 64.447478)">***</text>
   </g>
   <g id="text_11">
    <text style="font-size: 12px; font-family: 'DejaVu Sans', 'Bitstream Vera Sans', 'Computer Modern Sans Serif', 'Lucida Grande', 'Verdana', 'Geneva', 'Lucid', 'Arial', 'Helvetica', 'Avant Garde', sans-serif; text-anchor: middle" x="209.590312" y="16.318125" transform="rotate(-0 209.590312 16.318125)">Female Human Cells: HALLMARK_XENOBIOTIC_METABOLISM Scores</text>
   </g>
  </g>
 </g>
 <defs>
  <clipPath id="p2591af1c62">
   <rect x="83.590312" y="36.318125" width="252" height="345.6"/>
  </clipPath>
 </defs>
</svg>
