<?xml version="1.0" encoding="utf-8" standalone="no"?>
<!DOCTYPE svg PUBLIC "-//W3C//DTD SVG 1.1//EN"
  "http://www.w3.org/Graphics/SVG/1.1/DTD/svg11.dtd">
<svg xmlns:xlink="http://www.w3.org/1999/xlink" width="395.431875pt" height="419.271987pt" viewBox="0 0 395.431875 419.271987" xmlns="http://www.w3.org/2000/svg" version="1.1">
 <metadata>
  <rdf:RDF xmlns:dc="http://purl.org/dc/elements/1.1/" xmlns:cc="http://creativecommons.org/ns#" xmlns:rdf="http://www.w3.org/1999/02/22-rdf-syntax-ns#">
   <cc:Work>
    <dc:type rdf:resource="http://purl.org/dc/dcmitype/StillImage"/>
    <dc:date>2026-05-11T23:08:49.269472</dc:date>
    <dc:format>image/svg+xml</dc:format>
    <dc:creator>
     <cc:Agent>
      <dc:title>Matplotlib v3.10.9, https://matplotlib.org/</dc:title>
     </cc:Agent>
    </dc:creator>
   </cc:Work>
  </rdf:RDF>
 </metadata>
 <defs>
  <style type="text/css">*{stroke-linejoin: round; stroke-linecap: butt}</style>
 </defs>
 <g id="figure_1">
  <g id="patch_1">
   <path d="M 0 419.271987 
L 395.431875 419.271987 
L 395.431875 0 
L 0 0 
L 0 419.271987 
z
" style="fill: none"/>
  </g>
  <g id="axes_1">
   <g id="patch_2">
    <path d="M 71.715938 381.918125 
L 323.715937 381.918125 
L 323.715937 36.318125 
L 71.715938 36.318125 
L 71.715938 381.918125 
z
" style="fill: none"/>
   </g>
   <g id="FillBetweenPolyCollection_1">
    <defs>
     <path id="mda253a36ba" d="M 117.98677 -109.299495 
L 113.808742 -109.299495 
L 113.422661 -111.065964 
L 112.998971 -112.832433 
L 112.539694 -114.598902 
L 112.048144 -116.365371 
L 111.528985 -118.13184 
L 110.988115 -119.89831 
L 110.432332 -121.664779 
L 109.86881 -123.431248 
L 109.304422 -125.197717 
L 108.744949 -126.964186 
L 108.194267 -128.730655 
L 107.653543 -130.497124 
L 107.120498 -132.263593 
L 106.588795 -134.030062 
L 106.047633 -135.796532 
L 105.481667 -137.563001 
L 104.871393 -139.32947 
L 104.194149 -141.095939 
L 103.42583 -142.862408 
L 102.54331 -144.628877 
L 101.527419 -146.395346 
L 100.366151 -148.161815 
L 99.05764 -149.928285 
L 97.612323 -151.694754 
L 96.053798 -153.461223 
L 94.417985 -155.227692 
L 92.750534 -156.994161 
L 91.10274 -158.76063 
L 89.526592 -160.527099 
L 88.069787 -162.293568 
L 86.771586 -164.060038 
L 85.66023 -165.826507 
L 84.752246 -167.592976 
L 84.053591 -169.359445 
L 83.562134 -171.125914 
L 83.270786 -172.892383 
L 83.170483 -174.658852 
L 83.252434 -176.425321 
L 83.509279 -178.19179 
L 83.935133 -179.95826 
L 84.524732 -181.724729 
L 85.272034 -183.491198 
L 86.16867 -185.257667 
L 87.202573 -187.024136 
L 88.357052 -188.790605 
L 89.610467 -190.557074 
L 90.936606 -192.323543 
L 92.305773 -194.090013 
L 93.686535 -195.856482 
L 95.04793 -197.622951 
L 96.361882 -199.38942 
L 97.605455 -201.155889 
L 98.762597 -202.922358 
L 99.82507 -204.688827 
L 100.792411 -206.455296 
L 101.670943 -208.221766 
L 102.472039 -209.988235 
L 103.209946 -211.754704 
L 103.899561 -213.521173 
L 104.554491 -215.287642 
L 105.185639 -217.054111 
L 105.800434 -218.82058 
L 106.402681 -220.587049 
L 106.992893 -222.353519 
L 107.568931 -224.119988 
L 108.12676 -225.886457 
L 108.661176 -227.652926 
L 109.166441 -229.419395 
L 109.636842 -231.185864 
L 110.06723 -232.952333 
L 110.453602 -234.718802 
L 110.793753 -236.485271 
L 111.08793 -238.251741 
L 111.339362 -240.01821 
L 111.55447 -241.784679 
L 111.742621 -243.551148 
L 111.915328 -245.317617 
L 112.084975 -247.084086 
L 112.263244 -248.850555 
L 112.459543 -250.617024 
L 112.679725 -252.383494 
L 112.925365 -254.149963 
L 113.193694 -255.916432 
L 113.478191 -257.682901 
L 113.769666 -259.44937 
L 114.057615 -261.215839 
L 114.331591 -262.982308 
L 114.582401 -264.748777 
L 114.802985 -266.515247 
L 114.988917 -268.281716 
L 115.138572 -270.048185 
L 115.252976 -271.814654 
L 115.335433 -273.581123 
L 115.390999 -275.347592 
L 115.425847 -277.114061 
L 115.446601 -278.88053 
L 115.459681 -280.647 
L 115.470729 -282.413469 
L 115.484154 -284.179938 
L 116.311358 -284.179938 
L 116.311358 -284.179938 
L 116.324782 -282.413469 
L 116.33583 -280.647 
L 116.348911 -278.88053 
L 116.369665 -277.114061 
L 116.404512 -275.347592 
L 116.460078 -273.581123 
L 116.542536 -271.814654 
L 116.656939 -270.048185 
L 116.806594 -268.281716 
L 116.992527 -266.515247 
L 117.21311 -264.748777 
L 117.463921 -262.982308 
L 117.737897 -261.215839 
L 118.025845 -259.44937 
L 118.31732 -257.682901 
L 118.601817 -255.916432 
L 118.870146 -254.149963 
L 119.115786 -252.383494 
L 119.335969 -250.617024 
L 119.532267 -248.850555 
L 119.710536 -247.084086 
L 119.880183 -245.317617 
L 120.05289 -243.551148 
L 120.241041 -241.784679 
L 120.45615 -240.01821 
L 120.707581 -238.251741 
L 121.001759 -236.485271 
L 121.341909 -234.718802 
L 121.728281 -232.952333 
L 122.158669 -231.185864 
L 122.629071 -229.419395 
L 123.134335 -227.652926 
L 123.668751 -225.886457 
L 124.226581 -224.119988 
L 124.802619 -222.353519 
L 125.39283 -220.587049 
L 125.995077 -218.82058 
L 126.609873 -217.054111 
L 127.241021 -215.287642 
L 127.895951 -213.521173 
L 128.585566 -211.754704 
L 129.323472 -209.988235 
L 130.124568 -208.221766 
L 131.003101 -206.455296 
L 131.970442 -204.688827 
L 133.032914 -202.922358 
L 134.190056 -201.155889 
L 135.433629 -199.38942 
L 136.747581 -197.622951 
L 138.108977 -195.856482 
L 139.489739 -194.090013 
L 140.858906 -192.323543 
L 142.185044 -190.557074 
L 143.438459 -188.790605 
L 144.592939 -187.024136 
L 145.626842 -185.257667 
L 146.523477 -183.491198 
L 147.270779 -181.724729 
L 147.860378 -179.95826 
L 148.286233 -178.19179 
L 148.543078 -176.425321 
L 148.625028 -174.658852 
L 148.524725 -172.892383 
L 148.233377 -171.125914 
L 147.74192 -169.359445 
L 147.043265 -167.592976 
L 146.135282 -165.826507 
L 145.023925 -164.060038 
L 143.725725 -162.293568 
L 142.268919 -160.527099 
L 140.692771 -158.76063 
L 139.044977 -156.994161 
L 137.377526 -155.227692 
L 135.741713 -153.461223 
L 134.183188 -151.694754 
L 132.737871 -149.928285 
L 131.42936 -148.161815 
L 130.268093 -146.395346 
L 129.252201 -144.628877 
L 128.369681 -142.862408 
L 127.601362 -141.095939 
L 126.924118 -139.32947 
L 126.313844 -137.563001 
L 125.747878 -135.796532 
L 125.206717 -134.030062 
L 124.675013 -132.263593 
L 124.141968 -130.497124 
L 123.601244 -128.730655 
L 123.050562 -126.964186 
L 122.491089 -125.197717 
L 121.926701 -123.431248 
L 121.36318 -121.664779 
L 120.807396 -119.89831 
L 120.266526 -118.13184 
L 119.747368 -116.365371 
L 119.255817 -114.598902 
L 118.79654 -112.832433 
L 118.37285 -111.065964 
L 117.98677 -109.299495 
z
"/>
    </defs>
    <g clip-path="url(#p6b250f2ed7)">
     <use xlink:href="#mda253a36ba" x="0" y="419.271987" style="fill: #b6d7a8; fill-opacity: 0.3"/>
    </g>
   </g>
   <g id="FillBetweenPolyCollection_2">
    <defs>
     <path id="m127d90d794" d="M 280.697109 -62.181448 
L 278.37113 -62.181448 
L 278.305875 -64.689285 
L 278.260389 -67.197122 
L 278.231336 -69.704959 
L 278.212443 -72.212796 
L 278.195126 -74.720633 
L 278.169448 -77.22847 
L 278.125252 -79.736307 
L 278.053266 -82.244144 
L 277.94602 -84.751981 
L 277.798467 -87.259818 
L 277.608297 -89.767655 
L 277.375979 -92.275492 
L 277.104627 -94.783329 
L 276.799778 -97.291166 
L 276.469101 -99.799003 
L 276.122033 -102.30684 
L 275.769231 -104.814677 
L 275.42177 -107.322514 
L 275.09 -109.830351 
L 274.782094 -112.338188 
L 274.502408 -114.846025 
L 274.249888 -117.353862 
L 274.016794 -119.861699 
L 273.78805 -122.369536 
L 273.541421 -124.877373 
L 273.248649 -127.38521 
L 272.877491 -129.893047 
L 272.394519 -132.400884 
L 271.768362 -134.908721 
L 270.973036 -137.416558 
L 269.990939 -139.924395 
L 268.815154 -142.432232 
L 267.450724 -144.940069 
L 265.914758 -147.447906 
L 264.235347 -149.955743 
L 262.449463 -152.46358 
L 260.600135 -154.971417 
L 258.733327 -157.479254 
L 256.894891 -159.987091 
L 255.127965 -162.494928 
L 253.471024 -165.002765 
L 251.956685 -167.510602 
L 250.611188 -170.018439 
L 249.454427 -172.526276 
L 248.500325 -175.034113 
L 247.757333 -177.54195 
L 247.228921 -180.049787 
L 246.913941 -182.557624 
L 246.806847 -185.06546 
L 246.897832 -187.573297 
L 247.172974 -190.081134 
L 247.614522 -192.588971 
L 248.201455 -195.096808 
L 248.910388 -197.604645 
L 249.716836 -200.112482 
L 250.596753 -202.620319 
L 251.528199 -205.128156 
L 252.492893 -207.635993 
L 253.477423 -210.14383 
L 254.47388 -212.651667 
L 255.479774 -215.159504 
L 256.497205 -217.667341 
L 257.531378 -220.175178 
L 258.588678 -222.683015 
L 259.674605 -225.190852 
L 260.7919 -227.698689 
L 261.939164 -230.206526 
L 263.110172 -232.714363 
L 264.293992 -235.2222 
L 265.47583 -237.730037 
L 266.638445 -240.237874 
L 267.763856 -242.745711 
L 268.835038 -245.253548 
L 269.837374 -247.761385 
L 270.759644 -250.269222 
L 271.594509 -252.777059 
L 272.338511 -255.284896 
L 272.991716 -257.792733 
L 273.557162 -260.30057 
L 274.040265 -262.808407 
L 274.448288 -265.316244 
L 274.789931 -267.824081 
L 275.074994 -270.331918 
L 275.314075 -272.839755 
L 275.518193 -275.347592 
L 275.698317 -277.855429 
L 275.864761 -280.363266 
L 276.026544 -282.871103 
L 276.1908 -285.37894 
L 276.362362 -287.886777 
L 276.543638 -290.394614 
L 276.734805 -292.902451 
L 276.934276 -295.410288 
L 277.139356 -297.918125 
L 277.346908 -300.425962 
L 277.55391 -302.933799 
L 277.757784 -305.441636 
L 277.956483 -307.949473 
L 278.14838 -310.45731 
L 280.919859 -310.45731 
L 280.919859 -310.45731 
L 281.111756 -307.949473 
L 281.310455 -305.441636 
L 281.514329 -302.933799 
L 281.721331 -300.425962 
L 281.928883 -297.918125 
L 282.133963 -295.410288 
L 282.333434 -292.902451 
L 282.5246 -290.394614 
L 282.705877 -287.886777 
L 282.877439 -285.37894 
L 283.041694 -282.871103 
L 283.203478 -280.363266 
L 283.369922 -277.855429 
L 283.550045 -275.347592 
L 283.754164 -272.839755 
L 283.993244 -270.331918 
L 284.278308 -267.824081 
L 284.61995 -265.316244 
L 285.027974 -262.808407 
L 285.511077 -260.30057 
L 286.076523 -257.792733 
L 286.729728 -255.284896 
L 287.473729 -252.777059 
L 288.308594 -250.269222 
L 289.230864 -247.761385 
L 290.2332 -245.253548 
L 291.304383 -242.745711 
L 292.429793 -240.237874 
L 293.592409 -237.730037 
L 294.774247 -235.2222 
L 295.958066 -232.714363 
L 297.129075 -230.206526 
L 298.276338 -227.698689 
L 299.393634 -225.190852 
L 300.479561 -222.683015 
L 301.536861 -220.175178 
L 302.571034 -217.667341 
L 303.588465 -215.159504 
L 304.594359 -212.651667 
L 305.590816 -210.14383 
L 306.575346 -207.635993 
L 307.54004 -205.128156 
L 308.471485 -202.620319 
L 309.351402 -200.112482 
L 310.15785 -197.604645 
L 310.866784 -195.096808 
L 311.453717 -192.588971 
L 311.895264 -190.081134 
L 312.170406 -187.573297 
L 312.261392 -185.06546 
L 312.154298 -182.557624 
L 311.839317 -180.049787 
L 311.310905 -177.54195 
L 310.567913 -175.034113 
L 309.613811 -172.526276 
L 308.457051 -170.018439 
L 307.111553 -167.510602 
L 305.597214 -165.002765 
L 303.940274 -162.494928 
L 302.173347 -159.987091 
L 300.334911 -157.479254 
L 298.468103 -154.971417 
L 296.618776 -152.46358 
L 294.832891 -149.955743 
L 293.153481 -147.447906 
L 291.617515 -144.940069 
L 290.253084 -142.432232 
L 289.077299 -139.924395 
L 288.095203 -137.416558 
L 287.299876 -134.908721 
L 286.67372 -132.400884 
L 286.190748 -129.893047 
L 285.81959 -127.38521 
L 285.526817 -124.877373 
L 285.280189 -122.369536 
L 285.051445 -119.861699 
L 284.818351 -117.353862 
L 284.565831 -114.846025 
L 284.286145 -112.338188 
L 283.978239 -109.830351 
L 283.646468 -107.322514 
L 283.299007 -104.814677 
L 282.946206 -102.30684 
L 282.599137 -99.799003 
L 282.268461 -97.291166 
L 281.963612 -94.783329 
L 281.69226 -92.275492 
L 281.459942 -89.767655 
L 281.269772 -87.259818 
L 281.122219 -84.751981 
L 281.014972 -82.244144 
L 280.942986 -79.736307 
L 280.898791 -77.22847 
L 280.873113 -74.720633 
L 280.855796 -72.212796 
L 280.836903 -69.704959 
L 280.807849 -67.197122 
L 280.762363 -64.689285 
L 280.697109 -62.181448 
z
"/>
    </defs>
    <g clip-path="url(#p6b250f2ed7)">
     <use xlink:href="#m127d90d794" x="0" y="419.271987" style="fill: #f08080; fill-opacity: 0.3"/>
    </g>
   </g>
   <g id="patch_3">
    <path d="M 83.170483 256.511631 
L 148.625028 256.511631 
L 148.625028 223.891445 
L 83.170483 223.891445 
L 83.170483 256.511631 
z
" clip-path="url(#p6b250f2ed7)" style="fill: #b6d7a8; opacity: 0.3"/>
   </g>
   <g id="patch_4">
    <path d="M 246.806847 250.621875 
L 312.261392 250.621875 
L 312.261392 203.503828 
L 246.806847 203.503828 
L 246.806847 250.621875 
z
" clip-path="url(#p6b250f2ed7)" style="fill: #f08080; opacity: 0.3"/>
   </g>
   <g id="matplotlib.axis_1">
    <g id="xtick_1">
     <g id="line2d_1">
      <defs>
       <path id="mcacb1f48bb" d="M 0 0 
L 0 3.5 
" style="stroke: #000000; stroke-width: 0.8"/>
      </defs>
      <g>
       <use xlink:href="#mcacb1f48bb" x="115.897756" y="386.918125" style="stroke: #000000; stroke-width: 0.8"/>
      </g>
     </g>
     <g id="text_1">
      <text style="font-size: 10px; font-family: 'DejaVu Sans', 'Bitstream Vera Sans', 'Computer Modern Sans Serif', 'Lucida Grande', 'Verdana', 'Geneva', 'Lucid', 'Arial', 'Helvetica', 'Avant Garde', sans-serif" transform="translate(103.116801 410.601426) rotate(-45)">WT</text>
     </g>
    </g>
    <g id="xtick_2">
     <g id="line2d_2">
      <g>
       <use xlink:href="#mcacb1f48bb" x="279.534119" y="386.918125" style="stroke: #000000; stroke-width: 0.8"/>
      </g>
     </g>
     <g id="text_2">
      <text style="font-size: 10px; font-family: 'DejaVu Sans', 'Bitstream Vera Sans', 'Computer Modern Sans Serif', 'Lucida Grande', 'Verdana', 'Geneva', 'Lucid', 'Arial', 'Helvetica', 'Avant Garde', sans-serif" transform="translate(268.249137 409.105453) rotate(-45)">KO</text>
     </g>
    </g>
   </g>
   <g id="matplotlib.axis_2">
    <g id="ytick_1">
     <g id="line2d_3">
      <defs>
       <path id="ma54484ff59" d="M 0 0 
L -3.5 0 
" style="stroke: #000000; stroke-width: 0.8"/>
      </defs>
      <g>
       <use xlink:href="#ma54484ff59" x="66.715938" y="362.527237" style="stroke: #000000; stroke-width: 0.8"/>
      </g>
     </g>
     <g id="text_3">
      <text style="font-size: 10px; font-family: 'DejaVu Sans', 'Bitstream Vera Sans', 'Computer Modern Sans Serif', 'Lucida Grande', 'Verdana', 'Geneva', 'Lucid', 'Arial', 'Helvetica', 'Avant Garde', sans-serif; text-anchor: end" x="59.715938" y="366.326455" transform="rotate(-0 59.715938 366.326455)">0.05</text>
     </g>
    </g>
    <g id="ytick_2">
     <g id="line2d_4">
      <g>
       <use xlink:href="#ma54484ff59" x="66.715938" y="242.013771" style="stroke: #000000; stroke-width: 0.8"/>
      </g>
     </g>
     <g id="text_4">
      <text style="font-size: 10px; font-family: 'DejaVu Sans', 'Bitstream Vera Sans', 'Computer Modern Sans Serif', 'Lucida Grande', 'Verdana', 'Geneva', 'Lucid', 'Arial', 'Helvetica', 'Avant Garde', sans-serif; text-anchor: end" x="59.715938" y="245.812989" transform="rotate(-0 59.715938 245.812989)">0.10</text>
     </g>
    </g>
    <g id="ytick_3">
     <g id="line2d_5">
      <g>
       <use xlink:href="#ma54484ff59" x="66.715938" y="121.500305" style="stroke: #000000; stroke-width: 0.8"/>
      </g>
     </g>
     <g id="text_5">
      <text style="font-size: 10px; font-family: 'DejaVu Sans', 'Bitstream Vera Sans', 'Computer Modern Sans Serif', 'Lucida Grande', 'Verdana', 'Geneva', 'Lucid', 'Arial', 'Helvetica', 'Avant Garde', sans-serif; text-anchor: end" x="59.715938" y="125.299523" transform="rotate(-0 59.715938 125.299523)">0.15</text>
     </g>
    </g>
   </g>
   <g id="line2d_6">
    <path d="M 115.897756 256.511631 
L 115.897756 301.817445 
" clip-path="url(#p6b250f2ed7)" style="fill: none; stroke: #b6d7a8; stroke-width: 1.2"/>
   </g>
   <g id="line2d_7">
    <path d="M 115.897756 223.891445 
L 115.897756 182.210096 
" clip-path="url(#p6b250f2ed7)" style="fill: none; stroke: #b6d7a8; stroke-width: 1.2"/>
   </g>
   <g id="line2d_8">
    <path d="M 83.170483 242.013771 
L 148.625028 242.013771 
" clip-path="url(#p6b250f2ed7)" style="fill: none; stroke: #b6d7a8; stroke-width: 1.2"/>
   </g>
   <g id="line2d_9"/>
   <g id="line2d_10">
    <path d="M 279.534119 250.621875 
L 279.534119 317.221422 
" clip-path="url(#p6b250f2ed7)" style="fill: none; stroke: #f08080; stroke-width: 1.2"/>
   </g>
   <g id="line2d_11">
    <path d="M 279.534119 203.503828 
L 279.534119 136.904282 
" clip-path="url(#p6b250f2ed7)" style="fill: none; stroke: #f08080; stroke-width: 1.2"/>
   </g>
   <g id="line2d_12">
    <path d="M 246.806847 229.328143 
L 312.261392 229.328143 
" clip-path="url(#p6b250f2ed7)" style="fill: none; stroke: #f08080; stroke-width: 1.2"/>
   </g>
   <g id="line2d_13"/>
   <g id="patch_5">
    <path d="M 83.170483 256.511631 
L 148.625028 256.511631 
L 148.625028 223.891445 
L 83.170483 223.891445 
L 83.170483 256.511631 
L 83.170483 256.511631 
z
" clip-path="url(#p6b250f2ed7)" style="fill: none; stroke: #b6d7a8; stroke-width: 1.2; stroke-linejoin: miter"/>
   </g>
   <g id="patch_6">
    <path d="M 246.806847 250.621875 
L 312.261392 250.621875 
L 312.261392 203.503828 
L 246.806847 203.503828 
L 246.806847 250.621875 
L 246.806847 250.621875 
z
" clip-path="url(#p6b250f2ed7)" style="fill: none; stroke: #f08080; stroke-width: 1.2; stroke-linejoin: miter"/>
   </g>
   <g id="line2d_14">
    <path d="M 115.897756 72.069849 
L 115.897756 66.111228 
L 279.534119 66.111228 
L 279.534119 72.069849 
" clip-path="url(#p6b250f2ed7)" style="fill: none; stroke: #000000; stroke-width: 0.8; stroke-linecap: square"/>
   </g>
   <g id="patch_7">
    <path d="M 66.715938 362.527237 
L 66.715938 121.500305 
" style="fill: none; stroke: #000000; stroke-width: 0.8; stroke-linejoin: miter; stroke-linecap: square"/>
   </g>
   <g id="patch_8">
    <path d="M 115.897756 386.918125 
L 279.534119 386.918125 
" style="fill: none; stroke: #000000; stroke-width: 0.8; stroke-linejoin: miter; stroke-linecap: square"/>
   </g>
   <g id="text_6">
    <text style="font-size: 8px; font-family: 'DejaVu Sans', 'Bitstream Vera Sans', 'Computer Modern Sans Serif', 'Lucida Grande', 'Verdana', 'Geneva', 'Lucid', 'Arial', 'Helvetica', 'Avant Garde', sans-serif; text-anchor: middle" x="197.715937" y="64.447478" transform="rotate(-0 197.715937 64.447478)">p = 0.0001 ***</text>
   </g>
   <g id="text_7">
    <text style="font-size: 12px; font-family: 'DejaVu Sans', 'Bitstream Vera Sans', 'Computer Modern Sans Serif', 'Lucida Grande', 'Verdana', 'Geneva', 'Lucid', 'Arial', 'Helvetica', 'Avant Garde', sans-serif; text-anchor: middle" x="197.715937" y="16.318125" transform="rotate(-0 197.715937 16.318125)">Female Metacells: HALLMARK_FATTY_ACID_METABOLISM Scores</text>
   </g>
  </g>
 </g>
 <defs>
  <clipPath id="p6b250f2ed7">
   <rect x="71.715938" y="36.318125" width="252" height="345.6"/>
  </clipPath>
 </defs>
</svg>
